<svg id="clo_button" version="1.1" xmlns="http://www.w3.org/2000/svg" xmlns:xlink="http://www.w3.org/1999/xlink" x="0px" y="0px" viewBox="0 0 405.2 238.9" style="enable-background:new 0 0 405.2 238.9;" xml:space="preserve">
<path class="st0" d="M19.5,143.4C14.9,112,20.6,82.9,41.4,58C75,17.7,142.8,13.2,182.1,48.2c9.4,8.4,17,17.4,22.7,26.9l8-4.3&#10;c-19.3-34.6-56.3-58-98.8-58C51.6,12.9,1,63.5,1,125.9s50.6,113,113,113c42.5,0,79.5-23.4,98.8-58l-8.2-4.4&#10;c-13.6,25.5-36.4,42.3-68.3,49.1c-4.8,1-9.9,1-14.8,1.4C74,226.4,26.4,191.1,19.5,143.4 M237.8,236.2h13.5V0h-13.5V236.2z&#10;M390.3,189.7c-5.7,20.6-19.3,34-40.6,38.6c-2.5,0.6-5.2,0.5-7.8,0.8c-24.9-0.4-50-19.3-53.6-44.9c-2.4-16.8,0.6-32.5,11.5-45.9&#10;c17.7-21.6,53.2-24,73.9-5.3C390.6,148.4,396.4,167.8,390.3,189.7 M401,174.7c0-35.5-28.7-64.2-64.2-64.2s-64.2,28.7-64.2,64.2&#10;s28.7,64.2,64.2,64.2S401,210.2,401,174.7"/>
</svg>