<?xml version="1.0" encoding="utf-8"?>
<!-- Generator: Adobe Illustrator 20.0.0, SVG Export Plug-In . SVG Version: 6.00 Build 0)  -->
<svg version="1.1" id="Layer_1" xmlns="http://www.w3.org/2000/svg" xmlns:xlink="http://www.w3.org/1999/xlink" x="0px" y="0px"
	 viewBox="0 0 260 260" style="enable-background:new 0 0 260 260;" xml:space="preserve">
<style type="text/css">
	.st0{clip-path:url(#SVGID_2_);fill:#2B2625;}
</style>
<g>
	<defs>
		<rect id="SVGID_1_" x="52.5" y="100.3" width="155" height="59.4"/>
	</defs>
	<clipPath id="SVGID_2_">
		<use xlink:href="#SVGID_1_"  style="overflow:visible;"/>
	</clipPath>
	<path class="st0" d="M199.7,130c0,13.1-7.8,22.7-20.4,22.7c-12.6,0-20.4-9.6-20.4-22.7c0-13.1,7.8-22.7,20.4-22.7
		C191.8,107.3,199.7,116.9,199.7,130 M151.1,130c-0.2,17.4,12.5,29.9,28.3,29.7c15.7,0.2,28.4-12.2,28.1-29.7
		c0.2-17.4-12.4-29.9-28.1-29.7C163.6,100.1,150.8,112.6,151.1,130 M112.2,158.5h38.1v-7.1h-30.7v-50h-7.3V158.5z"/>
	<path class="st0" d="M52.5,129.4c-0.2,16.6,10.3,30.5,27.6,30.2c13.7,0,22.3-7.9,24.9-17.4l-7.4-2.8c-2.6,8.1-7.2,13.2-17.4,13.2
		c-11.8,0-19.7-9.7-19.7-23.4c0-13.5,7.9-22.1,19.7-22.1c5,0,8.9,1.3,11.6,3.8c2.7,2.5,4.6,5.5,5.6,8.6l7.6-2.6
		c-2.4-8.3-10.8-16.8-24.8-16.8C64,100.1,52.3,113,52.5,129.4"/>
</g>
</svg>
